<?xml version="1.0" encoding="UTF-8"?>
<svg width="489px" height="160px" viewBox="0 0 489 160" version="1.1" xmlns="http://www.w3.org/2000/svg" xmlns:xlink="http://www.w3.org/1999/xlink">
    <!-- Generator: Sketch 52.6 (67491) - http://www.bohemiancoding.com/sketch -->
    <title>input-fail</title>
    <desc>Created with Sketch.</desc>
    <g id="Page-1" stroke="none" stroke-width="1" fill="none" fill-rule="evenodd">
        <g id="input-fail">
            <path d="M458.48873,0 L30.9249219,0 C14.1014844,0 0.413652344,13.5959942 0.413652344,30.3081558 L0.413652344,91.6918442 C0.413652344,108.404006 14.1014844,122 30.9249219,122 L359.615625,122 C362.814824,122 365.40916,119.423652 365.40916,116.245032 C365.40916,113.066412 362.815547,110.490065 359.615625,110.490065 L30.9249219,110.490065 C20.4897656,110.490065 12,102.056816 12,91.6911264 L12,30.3074379 C12,19.9417486 20.4897656,11.5084994 30.9249219,11.5084994 L458.488008,11.5084994 C468.923164,11.5084994 477.41293,19.9417486 477.41293,30.3074379 L477.41293,60.9996411 C477.41293,64.1775432 480.006543,66.7546086 483.206465,66.7546086 C486.405664,66.7546086 489,64.178261 489,60.9996411 L489,30.3074379 C489,13.5959942 475.312168,0 458.48873,0 Z" id="Path" fill="#FFFFFF"></path>
            <path d="M463.652361,74.696091 L463.652361,60.9140364 C463.652361,40.5601317 447.209297,24 426.999278,24 C406.78926,24 390.346195,40.5601317 390.346195,60.9140364 L390.346195,74.696091 C383.177576,77.1346335 378,83.9674964 378,92 L378,110.651142 C378,137.861902 399.980877,160 427,160 C454.018401,160 476,137.862629 476,110.651142 L476,92 C475.999278,83.9674964 470.82098,77.1346335 463.652361,74.696091 Z M401.920663,60.9147635 C401.920663,46.988025 413.170991,35.6575999 426.999278,35.6575999 C440.827565,35.6575999 452.077893,46.988025 452.077893,60.9147635 L452.077893,73.7378325 L401.920663,73.7378325 L401.920663,60.9147635 Z M464.424088,110.651869 C464.424088,131.434736 447.635227,148.343127 426.999278,148.343127 C406.36333,148.343127 389.574468,131.434736 389.574468,110.651869 L389.574468,92.0007271 C389.574468,88.3581815 392.516994,85.3947053 396.13379,85.3947053 L457.865488,85.3947053 C461.482284,85.3947053 464.42481,88.3581815 464.42481,92.0007271 L464.42481,110.651869 L464.424088,110.651869 Z" id="Shape" fill="#ED5454" fill-rule="nonzero"></path>
            <path d="M427,99 C420.382907,99 415,104.329151 415,110.880162 C415,115.345979 417.504587,119.240303 421.193385,121.269568 L421.193385,125.251372 C421.193385,128.425774 423.792854,131 427,131 C430.206422,131 432.806615,128.426491 432.806615,125.251372 L432.806615,121.269568 C436.495413,119.24102 439,115.346696 439,110.880162 C439,104.329151 433.617093,99 427,99 Z" id="Path" fill="#ED5454"></path>
        </g>
    </g>
</svg>